<mxfile host="app.diagrams.net" agent="Mozilla/5.0 (Windows NT 10.0; Win64; x64) AppleWebKit/537.36 (KHTML, like Gecko) Chrome/128.0.0.0 Safari/537.36 Edg/128.0.0.0" version="24.7.12">
  <diagram name="PÃ¡gina-1" id="coQq_-15ScmbfbId8wJw">
    <mxGraphModel dx="1678" dy="2090" grid="1" gridSize="10" guides="1" tooltips="1" connect="1" arrows="1" fold="1" page="1" pageScale="1" pageWidth="827" pageHeight="1169" math="0" shadow="0">
      <root>
        <mxCell id="0" />
        <mxCell id="1" parent="0" />
        <mxCell id="uqoJdRZeiBLK2VQMLqf_-1" value="entreg" style="ellipse;whiteSpace=wrap;html=1;" vertex="1" parent="1">
          <mxGeometry x="1310" y="170" width="120" height="80" as="geometry" />
        </mxCell>
        <mxCell id="uqoJdRZeiBLK2VQMLqf_-2" value="post entrega" style="ellipse;whiteSpace=wrap;html=1;" vertex="1" parent="1">
          <mxGeometry x="630" y="170" width="120" height="80" as="geometry" />
        </mxCell>
        <mxCell id="uqoJdRZeiBLK2VQMLqf_-27" style="edgeStyle=orthogonalEdgeStyle;rounded=0;orthogonalLoop=1;jettySize=auto;html=1;entryX=0;entryY=0.5;entryDx=0;entryDy=0;" edge="1" parent="1" source="uqoJdRZeiBLK2VQMLqf_-36" target="uqoJdRZeiBLK2VQMLqf_-41">
          <mxGeometry relative="1" as="geometry" />
        </mxCell>
        <mxCell id="uqoJdRZeiBLK2VQMLqf_-28" style="edgeStyle=orthogonalEdgeStyle;rounded=0;orthogonalLoop=1;jettySize=auto;html=1;entryX=0;entryY=0.5;entryDx=0;entryDy=0;" edge="1" parent="1" source="uqoJdRZeiBLK2VQMLqf_-36" target="uqoJdRZeiBLK2VQMLqf_-42">
          <mxGeometry relative="1" as="geometry" />
        </mxCell>
        <mxCell id="uqoJdRZeiBLK2VQMLqf_-29" style="edgeStyle=orthogonalEdgeStyle;rounded=0;orthogonalLoop=1;jettySize=auto;html=1;entryX=0;entryY=0.5;entryDx=0;entryDy=0;" edge="1" parent="1" source="uqoJdRZeiBLK2VQMLqf_-36" target="uqoJdRZeiBLK2VQMLqf_-40">
          <mxGeometry relative="1" as="geometry" />
        </mxCell>
        <mxCell id="uqoJdRZeiBLK2VQMLqf_-30" style="edgeStyle=orthogonalEdgeStyle;rounded=0;orthogonalLoop=1;jettySize=auto;html=1;entryX=0;entryY=0.5;entryDx=0;entryDy=0;" edge="1" parent="1" source="uqoJdRZeiBLK2VQMLqf_-36" target="uqoJdRZeiBLK2VQMLqf_-38">
          <mxGeometry relative="1" as="geometry" />
        </mxCell>
        <mxCell id="uqoJdRZeiBLK2VQMLqf_-31" style="edgeStyle=orthogonalEdgeStyle;rounded=0;orthogonalLoop=1;jettySize=auto;html=1;entryX=0;entryY=0.5;entryDx=0;entryDy=0;" edge="1" parent="1" source="uqoJdRZeiBLK2VQMLqf_-36" target="uqoJdRZeiBLK2VQMLqf_-43">
          <mxGeometry relative="1" as="geometry" />
        </mxCell>
        <mxCell id="uqoJdRZeiBLK2VQMLqf_-32" style="edgeStyle=orthogonalEdgeStyle;rounded=0;orthogonalLoop=1;jettySize=auto;html=1;entryX=0;entryY=0.5;entryDx=0;entryDy=0;" edge="1" parent="1" source="uqoJdRZeiBLK2VQMLqf_-36" target="uqoJdRZeiBLK2VQMLqf_-45">
          <mxGeometry relative="1" as="geometry" />
        </mxCell>
        <mxCell id="uqoJdRZeiBLK2VQMLqf_-33" style="edgeStyle=orthogonalEdgeStyle;rounded=0;orthogonalLoop=1;jettySize=auto;html=1;entryX=0;entryY=0.5;entryDx=0;entryDy=0;" edge="1" parent="1" source="uqoJdRZeiBLK2VQMLqf_-36" target="uqoJdRZeiBLK2VQMLqf_-44">
          <mxGeometry relative="1" as="geometry" />
        </mxCell>
        <mxCell id="uqoJdRZeiBLK2VQMLqf_-34" style="edgeStyle=orthogonalEdgeStyle;rounded=0;orthogonalLoop=1;jettySize=auto;html=1;entryX=0;entryY=0.5;entryDx=0;entryDy=0;" edge="1" parent="1" source="uqoJdRZeiBLK2VQMLqf_-36" target="uqoJdRZeiBLK2VQMLqf_-46">
          <mxGeometry relative="1" as="geometry" />
        </mxCell>
        <mxCell id="uqoJdRZeiBLK2VQMLqf_-35" style="edgeStyle=orthogonalEdgeStyle;rounded=0;orthogonalLoop=1;jettySize=auto;html=1;entryX=0;entryY=0.5;entryDx=0;entryDy=0;" edge="1" parent="1" source="uqoJdRZeiBLK2VQMLqf_-36" target="uqoJdRZeiBLK2VQMLqf_-37">
          <mxGeometry relative="1" as="geometry" />
        </mxCell>
        <mxCell id="uqoJdRZeiBLK2VQMLqf_-49" style="edgeStyle=orthogonalEdgeStyle;rounded=0;orthogonalLoop=1;jettySize=auto;html=1;entryX=0;entryY=0.5;entryDx=0;entryDy=0;" edge="1" parent="1" source="uqoJdRZeiBLK2VQMLqf_-36" target="uqoJdRZeiBLK2VQMLqf_-48">
          <mxGeometry relative="1" as="geometry" />
        </mxCell>
        <mxCell id="uqoJdRZeiBLK2VQMLqf_-36" value="&lt;div&gt;CLIENTE&lt;/div&gt;" style="rounded=0;whiteSpace=wrap;html=1;fillColor=#dae8fc;strokeColor=#6c8ebf;" vertex="1" parent="1">
          <mxGeometry x="180" y="250" width="120" height="60" as="geometry" />
        </mxCell>
        <mxCell id="uqoJdRZeiBLK2VQMLqf_-37" value="id estudiante (pk)" style="ellipse;whiteSpace=wrap;html=1;fillColor=#f8cecc;strokeColor=#b85450;" vertex="1" parent="1">
          <mxGeometry x="340" y="-30" width="120" height="80" as="geometry" />
        </mxCell>
        <mxCell id="uqoJdRZeiBLK2VQMLqf_-38" value="fecvha de nacimeinto" style="ellipse;whiteSpace=wrap;html=1;fillColor=#a0522d;strokeColor=#6D1F00;fontColor=#ffffff;" vertex="1" parent="1">
          <mxGeometry x="340" y="330" width="120" height="50" as="geometry" />
        </mxCell>
        <mxCell id="uqoJdRZeiBLK2VQMLqf_-39" value="celular" style="ellipse;whiteSpace=wrap;html=1;fillColor=#a0522d;strokeColor=#6D1F00;fontColor=#ffffff;" vertex="1" parent="1">
          <mxGeometry x="340" y="600" width="120" height="50" as="geometry" />
        </mxCell>
        <mxCell id="uqoJdRZeiBLK2VQMLqf_-40" value="codigo" style="ellipse;whiteSpace=wrap;html=1;fillColor=#a0522d;strokeColor=#6D1F00;fontColor=#ffffff;" vertex="1" parent="1">
          <mxGeometry x="350" y="268" width="120" height="42" as="geometry" />
        </mxCell>
        <mxCell id="uqoJdRZeiBLK2VQMLqf_-41" value="materno" style="ellipse;whiteSpace=wrap;html=1;fillColor=#a0522d;strokeColor=#6D1F00;fontColor=#ffffff;" vertex="1" parent="1">
          <mxGeometry x="340" y="130" width="110" height="40" as="geometry" />
        </mxCell>
        <mxCell id="uqoJdRZeiBLK2VQMLqf_-42" value="nombres" style="ellipse;whiteSpace=wrap;html=1;fillColor=#a0522d;strokeColor=#6D1F00;fontColor=#ffffff;" vertex="1" parent="1">
          <mxGeometry x="340" y="200" width="120" height="40" as="geometry" />
        </mxCell>
        <mxCell id="uqoJdRZeiBLK2VQMLqf_-43" value="numero dni" style="ellipse;whiteSpace=wrap;html=1;fillColor=#a0522d;strokeColor=#6D1F00;fontColor=#ffffff;" vertex="1" parent="1">
          <mxGeometry x="340" y="395" width="120" height="50" as="geometry" />
        </mxCell>
        <mxCell id="uqoJdRZeiBLK2VQMLqf_-44" value="sexo" style="ellipse;whiteSpace=wrap;html=1;fillColor=#a0522d;strokeColor=#6D1F00;fontColor=#ffffff;" vertex="1" parent="1">
          <mxGeometry x="340" y="530" width="120" height="50" as="geometry" />
        </mxCell>
        <mxCell id="uqoJdRZeiBLK2VQMLqf_-45" value="estado civil" style="ellipse;whiteSpace=wrap;html=1;fillColor=#a0522d;strokeColor=#6D1F00;fontColor=#ffffff;" vertex="1" parent="1">
          <mxGeometry x="340" y="460" width="120" height="50" as="geometry" />
        </mxCell>
        <mxCell id="uqoJdRZeiBLK2VQMLqf_-46" value="correo" style="ellipse;whiteSpace=wrap;html=1;fillColor=#a0522d;strokeColor=#6D1F00;fontColor=#ffffff;" vertex="1" parent="1">
          <mxGeometry x="340" y="679" width="120" height="50" as="geometry" />
        </mxCell>
        <mxCell id="uqoJdRZeiBLK2VQMLqf_-47" style="edgeStyle=orthogonalEdgeStyle;rounded=0;orthogonalLoop=1;jettySize=auto;html=1;entryX=0;entryY=0.5;entryDx=0;entryDy=0;" edge="1" parent="1" source="uqoJdRZeiBLK2VQMLqf_-36" target="uqoJdRZeiBLK2VQMLqf_-39">
          <mxGeometry relative="1" as="geometry" />
        </mxCell>
        <mxCell id="uqoJdRZeiBLK2VQMLqf_-48" value="paterno" style="ellipse;whiteSpace=wrap;html=1;fillColor=#a0522d;strokeColor=#6D1F00;fontColor=#ffffff;" vertex="1" parent="1">
          <mxGeometry x="340" y="70" width="120" height="40" as="geometry" />
        </mxCell>
      </root>
    </mxGraphModel>
  </diagram>
</mxfile>
